<?xml version="1.0" encoding="UTF-8"?>
<svg id="Layer_1" data-name="Layer 1" xmlns="http://www.w3.org/2000/svg" version="1.1" viewBox="0 0 165 24">
  <defs>
    <style>
      .cls-1 {
        font-size: 29px;
      }

      .cls-1, .cls-2, .cls-3 {
        isolation: isolate;
      }

      .cls-1, .cls-4 {
        fill: #000;
      }

      .cls-5 {
        font-family: Kanit-Light, Kanit;
        font-weight: 300;
        letter-spacing: 0em;
      }

      .cls-6 {
        font-family: Kanit-Bold, Kanit;
        font-weight: 700;
      }

      .cls-2, .cls-4 {
        display: none;
      }

      .cls-4, .cls-7, .cls-8 {
        stroke-width: 0px;
      }

      .cls-7 {
        fill: #fff;
      }

      .cls-8 {
        fill: #d9083c;
      }
    </style>
  </defs>
  <path class="cls-4" d="M19.5,6.1V0H0v24h8.1v-7.7h10v-6.1h-10v-4.1s11.4,0,11.4,0Z"/>
  <path class="cls-4" d="M34.1,24h19v-6.3h-10.9V0h-8.1v24Z"/>
  <path class="cls-4" d="M85.7,24h8.4L83.6,0h-8l-10.5,24h8.2l1.6-4.2h9.1l1.6,4.2h.1ZM77.2,14l2.3-6,2.3,6h-4.7,0Z"/>
  <path class="cls-4" d="M121.8,24h8.7l-5-7.4c2.9-1.5,4.5-4.1,4.5-7.5,0-5.6-4.3-9.1-11-9.1h-11.6v24h8.1v-6h2.2s4.1,6,4.1,6ZM121.7,9.1c0,1.7-1.1,2.8-3.3,2.8h-3v-5.6h3c2.2,0,3.3,1.1,3.3,2.8Z"/>
  <path class="cls-4" d="M153,17.9v-3.2h10.2v-5.8h-10.2v-2.8h11.6V0h-19.5v24h20v-6.1h-12.1Z"/>
  <g class="cls-2">
    <text class="cls-1" transform="translate(0 23.7)"><tspan class="cls-6" x="0" y="0">PHOLI</tspan><tspan class="cls-5" x="81.7" y="0">DATA</tspan></text>
  </g>
  <g class="cls-3">
    <path class="cls-8" d="M0,1.4h10.9c2.5,0,4.4.7,5.7,2.2,1.3,1.4,1.9,3.3,1.9,5.6s-.3,2.8-1,4c-.6,1.2-1.5,2.1-2.7,2.7-1.2.7-2.5,1-4.1,1h-4.6v5.7H0V1.4ZM9.4,12.2c.9,0,1.6-.3,2.1-.8s.7-1.3.7-2.2-.2-1.7-.7-2.3c-.5-.5-1.1-.8-2-.8h-3.4v6h3.2Z"/>
    <path class="cls-8" d="M20.2,1.4h6.2v7.9h7.3V1.4h6.2v21.2h-6.2v-7.9h-7.3v7.9h-6.2V1.4Z"/>
    <path class="cls-8" d="M45,20.3c-1.8-1.7-2.7-4.5-2.7-8.3s.9-6.7,2.7-8.4c1.8-1.7,4.5-2.6,8.1-2.6s6.3.9,8.1,2.6c1.8,1.7,2.7,4.5,2.7,8.4s-.9,6.5-2.7,8.2c-1.8,1.8-4.5,2.6-8.1,2.6s-6.3-.9-8.1-2.6ZM56.5,16.3c.7-.9,1.1-2.3,1.1-4.3s-.4-3.5-1.1-4.4c-.7-.9-1.9-1.3-3.5-1.3s-2.8.4-3.5,1.3c-.7.9-1.1,2.4-1.1,4.4s.4,3.4,1.1,4.3,1.9,1.3,3.4,1.3,2.7-.4,3.4-1.3Z"/>
    <path class="cls-8" d="M66.2,1.4h6.2v16.5h9.6v4.7h-15.7V1.4Z"/>
    <path class="cls-8" d="M83.6,1.4h6.2v21.2h-6.2V1.4Z"/>
    <path class="cls-7" d="M108.7,20.1c-1.4,1.7-3.7,2.5-6.8,2.5h-8.3V1.4h8.3c3.1,0,5.4.8,6.8,2.5,1.4,1.7,2.1,4.4,2.1,8.2s-.7,6.3-2.1,8ZM107.4,6.9c-.4-1.2-1.1-2.1-2.1-2.6-1-.5-2.3-.8-3.9-.8h-5.1v17h5.1c1.6,0,2.9-.2,3.8-.7s1.7-1.3,2.2-2.5.7-2.9.7-5.2-.2-4-.7-5.2Z"/>
    <path class="cls-7" d="M115.4,22.6h-2.8L120.7,1.4h3.2l8,21.2h-2.8l-2.2-5.8h-9.2l-2.2,5.8ZM118.1,14.6h8.3l-4.2-10.9-4.1,10.9Z"/>
    <path class="cls-7" d="M140.2,22.6h-2.7V3.5h-7.1V1.4h16.8v2.1h-7.1v19.1Z"/>
    <path class="cls-7" d="M148.5,22.6h-2.8l8.1-21.2h3.2l8,21.2h-2.8l-2.2-5.8h-9.2l-2.2,5.8ZM151.2,14.6h8.3l-4.2-10.9-4.1,10.9Z"/>
  </g>
</svg>